<svg xmlns="http://www.w3.org/2000/svg" viewBox="0 0 82.34 126.23">
  <defs>
    <style>
      .a{fill:#464655}.b{fill:#82a7b1}.c{fill:#fff}
    </style>
  </defs>
  <path class="a" d="M18.26 30.34c-1.56 1.14-3.09 1-4.57 1.07a9.71 9.71 0 00-8.93 6.31 9.65 9.65 0 002.63 10.92c1.44 1.26 2.21 2.17.73 3.81-1.79 2-2.69-.14-3.57-.93A13.71 13.71 0 011 36.15a14.6 14.6 0 0113.14-8.95c2.16-.01 2.86 1.6 4.12 3.14zM42.3 82.42c-8.76 0-15.32-6.79-15-14.47a3.22 3.22 0 012.55-3.24c1.82-.28 1.42 1.69 1.43 2.77 0 4.89 2.08 8.59 6.68 10.22a9.31 9.31 0 0011.31-3.42c1.21-1.65 2-.67 3-.06 1.51.9.8 1.81.06 2.73a14 14 0 01-10.03 5.47zM39.36 0C48 0 54.38 6 54.6 13.3c0 1 .3 2-.53 2.84s-1.34 1.86-2.36 1.65c-1.36-.21-.91-1.61-.91-2.49-.08-8.84-7.35-12.58-13-10.82a8.82 8.82 0 00-4.88 3.32c-1.13 1.63-2.15 1.15-3.4.31-1.83-1.22-.37-2.17.31-3A13.45 13.45 0 0139.36 0zM65.3 32.59c.53-2.1 2-3.17 3-4.53a9.59 9.59 0 001.14-10.54 9.34 9.34 0 00-9-5.57c-.62 0-1.25.06-1.87 0-1.6-.07-1.55-1.35-1.69-2.43-.18-1.28.81-1.27 1.66-1.45 5.7-1.18 12.08 2.25 14.71 7.92 2.48 5.35 1 12.73-3.15 16.12-1.1.96-1.1.96-4.8.48zM64.52 51.4c1.3-.9 2.86-.71 4.27-.84 4.43-.44 7.54-2.6 9-6.77S78 36 74.74 33c-.81-.73-1.86-1.21-.94-2.7s1.47-2 3.11-.84c4.43 3.2 6.59 9.87 4.8 15.44s-7.59 9.94-13.27 9.78c-2.11-.07-2.17-.12-3.92-3.28zM59.3 74.47c-3.27.11-6.45-1.36-9.31-3.82A3.91 3.91 0 0148.71 67c.11-1.67.78-2 2.08-1 .89.68 1.72 1.44 2.6 2.13 3.34 2.65 7 3.21 10.83 1.31a9.32 9.32 0 005.47-9c0-1.57-.59-3.4 2-3.44s2 2.24 2.07 3.49c.24 7.67-6.08 13.95-14.46 13.98zM21.78 7.41A13.58 13.58 0 0131.33 11c.75.64 1.64 1.23 1.56 2.39-.06 1 .4 2.24-.46 2.8s-1.84-.45-2.52-1.07c-2.88-2.64-6-4.49-10.11-3.48-5 1.24-7.92 4.9-7.84 10.36 0 1.78-.2 2.81-2.18 3-2.51.24-1.67-1.71-1.73-2.76A13.65 13.65 0 0121.78 7.41zM21.28 73.72c-6.15-.27-10.4-3.08-12.81-8.48A13.94 13.94 0 0111.27 50c.72-.75 1.4-1.43 2.53-1.28.83.11 1.9-.32 2.41.53s-.33 1.62-.87 2.25c-1.46 1.7-3 3.33-3.56 5.62A9.88 9.88 0 0021 69.69c2.05 0 4.36-.31 4.06 2.6-.3 2.42-2.71.77-3.78 1.43z"/>
  <path class="a" d="M66.26 22.2c-.29.81.15 2.23-1.12 2.39a2.45 2.45 0 01-2.91-1.76c-.85-4-2.59-2.62-4.55-.91-1 .9-2.18 1.64-3.27 2.46s-2 .73-2.68-.59c-.53-1-1.13-1.85.31-2.77 1.66-1.06 3.1-2.48 4.72-3.61a5.92 5.92 0 016.35-.41c2.13 1 2.94 2.9 3.15 5.2zM66 60.23a5.59 5.59 0 01-5.79 5.92c-.89 0-2.27.32-2.45-1a2.41 2.41 0 011.76-2.89c3.44-.7 3-2.21 1.13-4.29a37.83 37.83 0 01-2.88-3.88c-.41-.6-.8-1.39.12-1.9s1.51-1.41 2.64-1S66 58.86 66 60.23zM22.43 66a5.76 5.76 0 01-6.09-5.71c0-.94-.32-2.21 1-2.52a2.2 2.2 0 012.76 1.35c1 4.51 2.91 2.91 5.07 1a24.24 24.24 0 012.7-2c.93-.62 1.89-1.41 2.76.14.63 1.13 1.16 2-.27 3.15C26.08 65 24.58 66 22.43 66zM16.31 22.36a5.68 5.68 0 015.72-6c.91 0 2.25-.36 2.49.94a2.3 2.3 0 01-1.68 2.89c-4 .82-2.63 2.59-.95 4.57a38.94 38.94 0 012.62 3.6c.39.58.9 1.33 0 1.9s-1.53 1.37-2.64 1-5.53-7.57-5.56-8.9zM54.19 44.65a23 23 0 011.61-12.9c.34-.85.6-2.14 2-1.21 1 .62 2.59.86 1.77 2.65a25.27 25.27 0 00-1.79 8.71c-.14 2.2-1.97 2.1-3.59 2.75zM40.88 27.73a23 23 0 01-9-1.83c-.76-.3-2.32-.41-1.42-1.94.62-1.05.83-2.8 2.92-1.82a15.56 15.56 0 007.25 1.56c2.47-.11 3.91 1.25 3.72 3.09s-2.45.52-3.47.94zM37.56 55.27c-.13-1.35.83-1.25 1.71-1.31a24.21 24.21 0 0110.62 1.63c1 .4 2.66.55 1.63 2.48-.73 1.36-1.34 2.12-3.13 1.31-3-1.35-6.26-1.51-9.5-1.67-1.21-.4-1.23-1.44-1.33-2.44zM26.26 37.57c1.26-.15 1.36.67 1.41 1.61a24 24 0 01-1.58 10.58c-.43 1.08-.63 2.6-2.51 1.74-1.44-.65-2.11-1.32-1.34-3.09a23.78 23.78 0 001.62-9.47c.4-1.16 1.48-1.13 2.4-1.37z"/>
  <path class="b" d="M40.65 74.86a6.21 6.21 0 01-4-1.82c-.61-.67-1.87-1.48-1.12-2.42s2.13-1.9 3.51-1c3.14 2.15 3.57.32 3.75-2.31a39.11 39.11 0 01.76-4.79c.21-1.16 1.07-1.3 2-1s2.24.25 2.08 1.61a43.16 43.16 0 01-1.39 8c-.82 2.52-3.05 3.56-5.59 3.73zM74.81 40.45A5.84 5.84 0 0173.2 45c-.73.71-1.57 2.11-2.7 1.19a2.55 2.55 0 01-.7-3.56c1.75-2.73.17-3.43-2.28-3.65-1.59-.15-3.17-.48-4.76-.67-1.1-.14-1.58-.71-1.3-1.75s.3-2.45 1.46-2.22c3 .6 6.27.11 9.07 1.67a5.73 5.73 0 012.82 4.44zM7.91 40.63a5.26 5.26 0 011.66-4c.76-.65 1.63-2.08 2.73-.84.71.79 1.61 1.95.61 3.34-2.23 3.08-.24 3.5 2.33 3.68 1.6.11 3.19.46 4.78.72 1.13.19 1.4.87 1 1.9s-.18 2.45-1.51 2.13c-2.8-.66-5.79-.18-8.43-1.44a5.62 5.62 0 01-3.17-5.49zM34.56 18.18a55.92 55.92 0 01.69-5.78 5.53 5.53 0 014.22-4.31 5.61 5.61 0 015.81 1.57c.66.66 1.78 1.53.87 2.5s-2.08 1.76-3.3.86c-3.54-2.59-3.61 0-3.91 2.46-.17 1.35-.39 2.71-.56 4.06S37.4 21.31 36 21s-2-.88-1.44-2.82zM51.51 54.08c-.93-.37-2.21-.49-2.67-1.17-.67-1 .63-1.67 1.25-2.34a23.51 23.51 0 018.48-5.88c.92-.38 1.92-1 2.37.47.28 1 1.29 2.22-.18 2.92a28.8 28.8 0 00-8.19 5.69c-.22.23-.68.23-1.06.31zM52.8 33.36a23.69 23.69 0 01-8-10.14c-.4-.94-1.37-2 .51-2.59 1.15-.32 2.39-1.11 3.1.65a22.72 22.72 0 005 7.31c1.51 1.56-.09 2.95-.61 4.77zM38.05 58.6c.44 1.37.17 2.18-1.41 2.65s-2.2-.08-2.75-1.44a15.77 15.77 0 00-4.39-6.35c-1.81-1.52-.94-3.2-.09-4.23 1.22-1.5 2.14.4 2.79 1.12 1.66 1.82 3.08 3.86 4.59 5.81.97.53 1 1.54 1.26 2.44zM20.22 34.51a15.34 15.34 0 007-4.12c1.89-2 3.58-2.27 5.87-.63-1.69 3.27-4.68 5.11-7.7 6.91a3.42 3.42 0 01-2.41 1.44l-2.06.11c-1.27-1.06-1.92-2.22-.7-3.71z"/>
  <path class="a" d="M33 65.24c.63-2.73 3.9-2.12 6.24-2.86.82-.26 2.44-.83 2.5 1 0 1.18 0 2.56-1.53 3-.35.1-.74.07-1.1.17a12.7 12.7 0 00-3.49 1.09c-2.16 1.47-2.47.28-2.62-2.4zM68.76 48.84c-1.9-.32-3.61 1.41-4.74-.54a12.11 12.11 0 01-1.68-7.09c.09-1 1.12-.7 1.83-.68 1.22 0 2.27.38 2.31 1.83.08 2.18 1.15 4 2.28 6.48zM15.52 55c1.19-1.17 1.48-3.34 3.54-2.85A12.61 12.61 0 0125.33 56c.63.68-.09 1.15-.58 1.42-.86.5-1.53 2-2.82.87-1.79-1.57-4.06-2.22-6.41-3.29zM56.29 26c4.08-4.76 6.4 2.1 10 .93-2.41 4.75-4.79 4.49-10-.93zM27.94 15.77c.91 1.26 3.31 1.54 2.3 3.76a35 35 0 01-2.77 4.82c-.42.64-1.11 1.69-2 .72-.72-.74-2.06-1.59-1.33-2.78a21.84 21.84 0 003-5.95c-.01-.23.45-.34.8-.57zM55.15 66.42a5.79 5.79 0 01.67-9.64c1-.63 1.32 0 1.76.55.7.83 1.67 1.66.62 2.88-1.49 1.73-2.2 3.85-3.05 6.21zM42.42 19.61c-.74-.07-2 .38-1.92-1.25.07-1.05-.06-2.27 1.44-2.64s3.06-.92 4.61-1.27c.74-.17 1.74-1.77 2.27.05.35 1.17 1.19 2.67-.57 3.58a13 13 0 01-5.83 1.53zM19.28 41.93c-2.21-.22-3.82-.86-4-3.61-.1-1.6-1.1-3.15-1.74-4.83 2.24-.57 4.26-1.13 5.2 1.67 1.7 2.14 1.26 4.45.54 6.77zM25.73 37l-.19.1-.73.29"/>
  <path class="c" d="M25.47 36.6a6.41 6.41 0 01-.8.34c-.59.23-.33 1.2.27 1a6.75 6.75 0 001-.44.5.5 0 00-.51-.86z"/>
  <path class="a" d="M21.21 38.59l.46-.2.4-.15.38-.1c.37-.09.74-.2 1.1-.32"/>
  <path class="c" d="M21.34 39.07c.77-.32 1.55-.51 2.35-.77.6-.21.34-1.17-.27-1-.79.27-1.58.45-2.35.78-.58.24-.32 1.21.27 1z"/>
  <path class="a" d="M23.49 37.91a1.19 1.19 0 01.48-.23c.22-.07.44-.14.67-.19"/>
  <path class="c" d="M23.74 38.34a3.1 3.1 0 011-.37c.63-.15.36-1.12-.26-1a3.72 3.72 0 00-1.27.46c-.52.38 0 1.24.5.87z"/>
  <path class="b" d="M5.09 99.06c-.71-.24-1.35-.48-1.92-.73a6 6 0 01-1.49-.9 3.62 3.62 0 01-1-1.26 4.2 4.2 0 01-.35-1.79 3.91 3.91 0 011.57-3.26 7 7 0 014.41-1.23 11.68 11.68 0 011.95.11 5.47 5.47 0 011.52.44 2.73 2.73 0 011 .77 1.72 1.72 0 01.36 1.09 1.94 1.94 0 01-.29 1.07 3 3 0 01-.7.75 5.26 5.26 0 00-1.41-.58 7.07 7.07 0 00-1.95-.26 3.17 3.17 0 00-1.58.3.88.88 0 00-.51.76.7.7 0 00.3.66 3.28 3.28 0 00.93.42l1.27.41a9.24 9.24 0 013.47 1.83 3.93 3.93 0 011.21 3 4 4 0 01-1.6 3.3 7.58 7.58 0 01-4.73 1.26 10.94 10.94 0 01-2.05-.18 6.48 6.48 0 01-1.66-.53 3 3 0 01-1.1-.86 1.88 1.88 0 01-.4-1.19 1.81 1.81 0 01.41-1.19 3.14 3.14 0 01.89-.76 6.22 6.22 0 001.64.92 5.87 5.87 0 002.12.38 2.85 2.85 0 001.66-.36 1 1 0 00.48-.84.83.83 0 00-.38-.73 5.06 5.06 0 00-1.06-.48zM13.2 93.66a3.09 3.09 0 01-.31-.72 3 3 0 01-.15-1 1.81 1.81 0 01.42-1.34 1.49 1.49 0 011.1-.41h10.46A2.76 2.76 0 0125 91a3 3 0 01.15 1 1.81 1.81 0 01-.42 1.34 1.53 1.53 0 01-1.1.41H21v11.09a6.89 6.89 0 01-.83.14 8.38 8.38 0 01-1.11.07 4.79 4.79 0 01-1-.08 1.79 1.79 0 01-.7-.3 1.24 1.24 0 01-.44-.6 3.1 3.1 0 01-.14-1v-9.41zM27.22 92.53a2.07 2.07 0 012.23-2.23h7.92a3.12 3.12 0 01.3.7 3 3 0 01.13.91 1.7 1.7 0 01-.4 1.29 1.41 1.41 0 01-1 .39h-5.1v2.23h5.4a3.13 3.13 0 01.3.68 3.26 3.26 0 01.13.9 1.79 1.79 0 01-.39 1.3 1.37 1.37 0 01-1 .38H31.3v2.52h6.16a2.41 2.41 0 01.3.7 3 3 0 01.14.91 1.81 1.81 0 01-.4 1.31 1.42 1.42 0 01-1 .4h-7a2.2 2.2 0 01-1.63-.6 2.22 2.22 0 01-.6-1.64zM49.08 104.36a2.87 2.87 0 01-1 .51 5.48 5.48 0 01-1.55.21 4.5 4.5 0 01-1.73-.3 1.78 1.78 0 01-1-.82 35.1 35.1 0 01-1.46-3.43l-.86-2.29a112.01 112.01 0 01-1.62-4.91c-.24-.8-.45-1.55-.62-2.25a3 3 0 011-.62 3.39 3.39 0 011.35-.27 2.59 2.59 0 011.41.41 2.26 2.26 0 01.82 1.4c.44 1.57.87 3.07 1.31 4.5l1.38 4.5h.15q.65-2.3 1.34-5t1.31-5.31a5.87 5.87 0 01.92-.36 4.23 4.23 0 011.12-.14 2.8 2.8 0 011.51.39 1.45 1.45 0 01.62 1.31 6.8 6.8 0 01-.25 1.54c-.17.67-.38 1.43-.65 2.27a74.38 74.38 0 01-1.89 5.2c-.35.8-.64 1.52-.92 2.14a8 8 0 01-.69 1.32zM55.58 92.53a2.2 2.2 0 01.6-1.63 2.22 2.22 0 011.64-.6h7.92a3.12 3.12 0 01.3.7 3.33 3.33 0 01.13.91 1.7 1.7 0 01-.4 1.29 1.41 1.41 0 01-1 .39h-5.11v2.23h5.4a2.39 2.39 0 01.3.68 2.93 2.93 0 01.14.9 1.79 1.79 0 01-.39 1.3 1.37 1.37 0 01-1 .38h-4.45v2.52h6.17a3.12 3.12 0 01.3.7 3 3 0 01.13.91 1.82 1.82 0 01-.39 1.31 1.44 1.44 0 01-1.05.4h-7a2.07 2.07 0 01-2.24-2.24zM81.91 104.34a2.23 2.23 0 01-1 .52 5.61 5.61 0 01-1.52.18 5.1 5.1 0 01-1.68-.27 2.32 2.32 0 01-1.3-1.27l-2.38-4.85c-.24-.49-.45-1-.64-1.4s-.4-1-.63-1.53h-.14c.06.86.1 1.74.11 2.64v6.36a7.16 7.16 0 01-.81.14 7.65 7.65 0 01-1.06.07 5.22 5.22 0 01-.94-.07 1.37 1.37 0 01-.67-.29 1.39 1.39 0 01-.41-.58 2.71 2.71 0 01-.14-1V91a2 2 0 011-.72 4.52 4.52 0 011.49-.24 5.3 5.3 0 011.69.28 2.28 2.28 0 011.28 1.26l2.4 4.85c.24.49.46 1 .65 1.4s.4.95.62 1.53h.12c-.06-.86-.1-1.73-.12-2.59s0-1.73 0-2.59V90.3a5.25 5.25 0 01.8-.14 7.82 7.82 0 011.07-.08 2.86 2.86 0 011.61.38c.37.24.55.76.55 1.54zM19.14 123.47a1.92 1.92 0 01-.26 1.1 2.93 2.93 0 01-.84.7 5.66 5.66 0 01-.84.37 9.83 9.83 0 01-1.11.31 11.82 11.82 0 01-1.26.21c-.44 0-.87.07-1.31.07a11 11 0 01-3.24-.47 7.23 7.23 0 01-2.62-1.42A6.64 6.64 0 015.89 122a8.65 8.65 0 01.11-6.74 7.26 7.26 0 011.87-2.44 8 8 0 012.67-1.45 10.06 10.06 0 013.08-.48 7.6 7.6 0 013.61.73 2.18 2.18 0 011.34 1.91 1.84 1.84 0 01-.32 1.08 2.25 2.25 0 01-.72.72 10.67 10.67 0 00-1.5-.71 5.6 5.6 0 00-2-.34 4.4 4.4 0 00-3.21 1.15 4.25 4.25 0 00-1.19 3.19 5 5 0 00.33 1.91 3.75 3.75 0 00.87 1.32 3.71 3.71 0 001.28.77 4.81 4.81 0 001.53.25 3.82 3.82 0 00.94-.1 2.32 2.32 0 00.62-.21v-2.26h-2.64a4.7 4.7 0 01-.27-.7 3 3 0 01-.13-.91 1.72 1.72 0 01.39-1.25 1.45 1.45 0 011-.38h4.06a1.39 1.39 0 011.51 1.51zM26.08 121.14v4.61a7.27 7.27 0 01-.83.14 8.53 8.53 0 01-1.12.07 4.69 4.69 0 01-1-.08 1.79 1.79 0 01-.7-.3A1.35 1.35 0 0122 125a3.1 3.1 0 01-.14-1v-11.3a1 1 0 01.28-.78 2 2 0 01.75-.45 9.39 9.39 0 011.9-.42 20.82 20.82 0 012.3-.13 7.71 7.71 0 015 1.39 4.65 4.65 0 011.68 3.77 4.25 4.25 0 01-.77 2.52 5.66 5.66 0 01-1.83 1.63c.58.78 1.15 1.52 1.71 2.21a13.71 13.71 0 011.32 1.87 2.26 2.26 0 01-.88 1.28 2.41 2.41 0 01-1.43.45 3.09 3.09 0 01-.91-.12 2.22 2.22 0 01-.67-.34 2.66 2.66 0 01-.53-.53 8.73 8.73 0 01-.46-.67l-2-3.24zm1.51-3.14a2.1 2.1 0 001.44-.47 1.75 1.75 0 00.53-1.38 1.66 1.66 0 00-.59-1.38 3 3 0 00-1.86-.47 4.51 4.51 0 00-.58 0c-.14 0-.3 0-.48.07V118zM39.8 111.73a5 5 0 011.24-.45 6.33 6.33 0 011.67-.22 6 6 0 012.12.35A1.84 1.84 0 0146 112.5c.29.83.6 1.8.94 2.9s.67 2.25 1 3.42l1 3.48c.33 1.14.6 2.16.84 3a2.09 2.09 0 01-.87.54 4 4 0 01-1.37.2 4.51 4.51 0 01-1-.09 1.86 1.86 0 01-.65-.29 1.53 1.53 0 01-.4-.5 4 4 0 01-.28-.72l-.43-1.66h-4.3l-.39 1.49-.38 1.49a7.35 7.35 0 01-.71.2 4 4 0 01-.9.08 3.12 3.12 0 01-1.81-.42 1.32 1.32 0 01-.59-1.16 2.22 2.22 0 01.1-.67l.2-.79c.11-.44.27-1 .47-1.61l.66-2.08c.24-.74.49-1.51.77-2.29l.77-2.22c.24-.7.45-1.32.66-1.86l.47-1.21zm2.88 3.1l-.75 2.24c-.28.82-.54 1.66-.76 2.51h3l-.69-2.53-.63-2.22zM55.33 111.73a4.84 4.84 0 011.24-.45 6.26 6.26 0 011.66-.22 6.1 6.1 0 012.13.35 1.86 1.86 0 011.19 1.09c.29.83.6 1.8.93 2.9s.67 2.25 1 3.42.66 2.34 1 3.48.6 2.16.84 3a2 2 0 01-.86.54 4 4 0 01-1.37.2 4.51 4.51 0 01-1-.09 1.86 1.86 0 01-.65-.29 1.69 1.69 0 01-.41-.5 5 5 0 01-.27-.72l-.43-1.66H56l-.38 1.49-.39 1.49a7.15 7.15 0 01-.7.2 4 4 0 01-.9.08 3.18 3.18 0 01-1.82-.42 1.34 1.34 0 01-.58-1.16 2.57 2.57 0 01.09-.67l.22-.79c.08-.3.27-1 .47-1.61l.66-2.08c.24-.74.49-1.51.76-2.29l.77-2.22.66-1.86zm2.88 3.1l-.76 2.24c-.28.82-.53 1.66-.75 2.51h3l-.69-2.53c-.23-.82-.44-1.57-.64-2.22zM77.51 111.3a3 3 0 01.3.71 3.46 3.46 0 01.13.92 1.79 1.79 0 01-.4 1.33 1.42 1.42 0 01-1.07.4h-5v2.71h5.26a2.17 2.17 0 01.32.7 3 3 0 01.14.91 1.83 1.83 0 01-.4 1.31 1.45 1.45 0 01-1.07.39h-4.2v5.07a6.54 6.54 0 01-.83.14 8.27 8.27 0 01-1.11.07 4.69 4.69 0 01-1-.08 1.84 1.84 0 01-.71-.3 1.23 1.23 0 01-.43-.6 2.83 2.83 0 01-.15-1v-10.45a2.07 2.07 0 012.23-2.23z"/>
</svg>
