<svg xmlns="http://www.w3.org/2000/svg" viewBox="0 0 943.49 311"><defs><style>.a{fill:#fff;}</style></defs><title>Logo</title><polygon points="269.33 233.25 269.33 77.75 134.67 0 0 77.75 0 233.25 134.67 311 269.33 233.25"/><path class="a" d="M139.5,88.54v10.3a56.88,56.88,0,0,1,0,113.32v10.3a67.14,67.14,0,0,0,0-133.92Z"/><path class="a" d="M77.61,155.5A57,57,0,0,1,129.5,98.84V88.54a67.14,67.14,0,0,0,0,133.92v-10.3A57,57,0,0,1,77.61,155.5Z"/><path class="a" d="M134.5,189.83a34.38,34.38,0,0,1-34-29.33H89.17a45.6,45.6,0,0,0,90.66,0H168.46A34.38,34.38,0,0,1,134.5,189.83Z"/><path class="a" d="M134.5,121.17a34.38,34.38,0,0,1,34,29.33h11.37a45.6,45.6,0,0,0-90.66,0h11.37A34.38,34.38,0,0,1,134.5,121.17Z"/><path class="a" d="M134.5,132.94a22.56,22.56,0,1,1-22.56,22.56A22.55,22.55,0,0,1,134.5,132.94Zm11.78,22.56a11.78,11.78,0,1,0-11.78,11.78A11.8,11.8,0,0,0,146.28,155.5Z"/><path d="M423.78,61.7h34.49c34.48,0,59.07,22.93,59.07,56.1s-24.42,56.1-59.07,56.1H423.78Zm33.33,91.9c24.92,0,36.3-14.85,36.3-35.8S482,82,457.11,82H446.88V153.6Z"/><path d="M569.48,117.8c0-33.17,23.43-57.42,57.25-57.42,18.32,0,31.52,4.95,40.76,15.51L651.81,91.4c-5.61-5.78-12-10.23-25.08-10.23-20.29,0-33.49,15.67-33.49,36.63s13.53,37,37.12,37c7.26,0,16.17-1.32,21.95-4.13v-16.5H625.25V113.84h48.18v48.51c-6.44,5.28-22.61,13-43.07,13C593.73,175.39,569.48,151,569.48,117.8Z"/><path d="M731.67,61.7h34.49c34.48,0,59.07,22.93,59.07,56.1s-24.42,56.1-59.07,56.1H731.67ZM765,153.6c24.92,0,36.3-14.85,36.3-35.8S789.92,82,765,82H754.77V153.6Z"/><path d="M346,219.39a36.24,36.24,0,0,0-11.7-2.16,13.5,13.5,0,0,0-8.82,2.79,8.44,8.44,0,0,0-3.42,6.75q0,5.67,6,8.91l12.69,7q10.62,5.94,10.62,15.3a15.25,15.25,0,0,1-5.49,12.33q-5.49,4.59-15.48,4.59a42.82,42.82,0,0,1-17.91-3.6l2.25-6.3a36,36,0,0,0,14.54,3.24q7.15,0,10.57-2.79a8.44,8.44,0,0,0,3.42-6.75q0-5.67-6-8.91l-12.69-7Q314,236.85,314,227.49a15.25,15.25,0,0,1,5.49-12.33q5.49-4.59,14.76-4.59a45.18,45.18,0,0,1,14.13,2.61Z"/><path d="M384,249.27v-4q0-7.29-7.56-7.29A24.29,24.29,0,0,0,364,241.89l-2.61-5.4a30,30,0,0,1,16.29-4.77,15.67,15.67,0,0,1,10,3.11q3.92,3.09,3.91,9.58v29.43h-4.86l-2.25-5.4a21.63,21.63,0,0,1-6.84,4.73,18,18,0,0,1-7.2,1.75,12.65,12.65,0,0,1-8.91-3.06,10.37,10.37,0,0,1-3.33-8Q358.23,249.27,384,249.27Zm-17.23,11.48a7.09,7.09,0,0,0-.59,3.14,4.16,4.16,0,0,0,1.67,3.33,6.49,6.49,0,0,0,4.36,1.4q5.67,0,11.79-5v-9q-11.34.18-14.94,3.42A9.44,9.44,0,0,0,366.74,260.75Z"/><path d="M403.86,209.22h7.38v64.62h-7.38Z"/><path d="M440.31,268.62a25.09,25.09,0,0,0,13-3.87l2.61,5.4a29.77,29.77,0,0,1-16.16,4.77q-8.6,0-13.63-5.45t-5-15.7q0-10.26,5.22-16.15t13.86-5.9q7.83,0,12.33,4.86a15.69,15.69,0,0,1,3.19,5.76,27.34,27.34,0,0,1,1.31,8.91l-2.79,3.15H428.7Q429,268.62,440.31,268.62Zm6.48-28a8.62,8.62,0,0,0-6.89-3.06,9.78,9.78,0,0,0-7.24,3,13.56,13.56,0,0,0-3.6,8.14H449.4A12.06,12.06,0,0,0,446.79,240.63Z"/><path d="M487.47,240a21.87,21.87,0,0,0-8.64-2q-7.83,0-7.83,4.77,0,4.14,10.44,8a21.41,21.41,0,0,1,7.15,4.5,9.73,9.73,0,0,1,3.29,7.38q0,6.21-4.05,9.23t-11.25,3a27.69,27.69,0,0,1-14-4l2.25-5.58a25.47,25.47,0,0,0,12.87,3.24,8.47,8.47,0,0,0,4.95-1.31,4.08,4.08,0,0,0,1.89-3.55,4.74,4.74,0,0,0-2.16-3.87,23.73,23.73,0,0,0-5.22-2.88c-2-.84-4.08-1.75-6.12-2.75a15,15,0,0,1-5.22-4.18,9.92,9.92,0,0,1-2.16-6.39q0-5.76,3.91-8.86a15.53,15.53,0,0,1,10-3.11,30.54,30.54,0,0,1,12.24,2.7Z"/><path d="M541.11,274.92A19.81,19.81,0,0,1,528,270.47q-5.31-4.46-5.3-12.83a16.67,16.67,0,0,1,3.73-11.16,33,33,0,0,1,10.13-7.74q-5.22-8.19-5.23-14,0-7.74,4.64-11.93A16,16,0,0,1,547,208.59a16.54,16.54,0,0,1,11.16,4.09q4.73,4.11,4.72,11.12T558,235a49.15,49.15,0,0,1-10.62,6.39,145.12,145.12,0,0,0,14,14.85,39.5,39.5,0,0,0,6.21-13.95l7.29,1.44a44.35,44.35,0,0,1-8.11,17.55q5.31,4.77,10.9,9.27l-5,5.22q-5.67-4.59-10.8-9.18Q552.36,274.92,541.11,274.92Zm0-6.66q8,0,15.47-6.66a149.68,149.68,0,0,1-16-17.19,24,24,0,0,0-7.38,5.44,11.72,11.72,0,0,0-2.61,8,9.85,9.85,0,0,0,3,7.69A10.7,10.7,0,0,0,541.11,268.26Zm.4-50.54a9.91,9.91,0,0,0-2.3,7q0,4.5,4.06,10.89,8.91-4.05,10.8-7.83a8.85,8.85,0,0,0,.89-4,8.26,8.26,0,0,0-2.38-6.25,7.76,7.76,0,0,0-5.58-2.3A7.26,7.26,0,0,0,541.51,217.72Z"/><path d="M617.69,245q0,10.35,5.45,16.83t14.76,6.48a39.35,39.35,0,0,0,18.22-4.59l1,6.84a49.16,49.16,0,0,1-19.8,4.41q-9.72,0-16.15-4.37a25.9,25.9,0,0,1-9.41-11,35.39,35.39,0,0,1-3-14.58q0-15.12,8.82-24.75t23.49-9.63A49.38,49.38,0,0,1,655.67,213l-2.16,6.3a42.46,42.46,0,0,0-12.42-1.89q-11,0-17.19,7.38T617.69,245Z"/><path d="M682.67,231.72q10,0,14.58,6.21t4.59,16.2a24.87,24.87,0,0,1-3.78,13.32,14.93,14.93,0,0,1-6.21,5.4,21.92,21.92,0,0,1-9.9,2.07q-9.9,0-14.4-5.94t-4.5-15.93a23.8,23.8,0,0,1,1.85-9.9,23.4,23.4,0,0,1,3.91-6.26,16.15,16.15,0,0,1,5.67-3.68A21.32,21.32,0,0,1,682.67,231.72Zm0,5.85a11,11,0,0,0-5.89,1.53,9.43,9.43,0,0,0-3.65,4,22.75,22.75,0,0,0-2.16,9.81q0,16.2,11.25,16.2a10.76,10.76,0,0,0,5.85-1.53,10.15,10.15,0,0,0,3.69-4,22.37,22.37,0,0,0,2.16-9.81Q693.92,237.57,682.67,237.57Z"/><path d="M734.51,249.27v-4q0-7.29-7.56-7.29a24.29,24.29,0,0,0-12.42,3.87l-2.61-5.4a30,30,0,0,1,16.29-4.77,15.67,15.67,0,0,1,10,3.11q3.91,3.09,3.91,9.58v29.43H737.3l-2.25-5.4a21.63,21.63,0,0,1-6.84,4.73,18,18,0,0,1-7.2,1.75,12.65,12.65,0,0,1-8.91-3.06,10.37,10.37,0,0,1-3.33-8Q708.77,249.27,734.51,249.27Zm-17.23,11.48a7.24,7.24,0,0,0-.59,3.14,4.19,4.19,0,0,0,1.67,3.33,6.51,6.51,0,0,0,4.36,1.4q5.67,0,11.79-5v-9q-11.34.18-14.94,3.42A9.44,9.44,0,0,0,717.28,260.75Z"/><path d="M770.87,231.72a30.54,30.54,0,0,1,12.24,2.7L780.86,240a24.37,24.37,0,0,0-9.76-2,9.83,9.83,0,0,0-8.19,3.87q-3,3.87-3,11.34T763,264.66a10.07,10.07,0,0,0,8.28,4,25.4,25.4,0,0,0,10.62-2.52l1.71,5.94a30.47,30.47,0,0,1-12.78,2.88,17.2,17.2,0,0,1-13.63-6.08Q752,262.78,752,253.18t5.27-15.52A17.36,17.36,0,0,1,770.87,231.72Z"/><path d="M799.13,209.22V237a23,23,0,0,1,14.49-5.31q6,0,9.59,3a9.85,9.85,0,0,1,3.55,7.88v31.23h-7.65V243.15a4.12,4.12,0,0,0-1.84-3.6,8.57,8.57,0,0,0-4.91-1.26q-6.39,0-13.23,4.59v31h-7.65V209.22Z"/><path d="M847.37,223.13a4.9,4.9,0,0,1-7,0,5.07,5.07,0,0,1,0-7.12,4.81,4.81,0,0,1,6.94,0,5.07,5.07,0,0,1,0,7.12Zm-7.29,9.67h7.65v41h-7.65Z"/><path d="M896.69,242.79v31H889V243.15a4.1,4.1,0,0,0-1.85-3.6,8.54,8.54,0,0,0-4.9-1.26q-6.39,0-13.23,4.59v31h-7.65v-41h4.86l2.25,4.68a23.05,23.05,0,0,1,15-5.76q6,0,9.58,3.06A10.07,10.07,0,0,1,896.69,242.79Z"/><path d="M922.7,262.23a28,28,0,0,1-4-.27q-2.25,4.32-2.25,5.67,0,.63,1.62,1.08l11,2.43q7.65,1.71,10.89,4a7.81,7.81,0,0,1,3.24,6.8,10.12,10.12,0,0,1-3.15,7.56q-6.12,6.12-18,6.12a27.48,27.48,0,0,1-12.6-2.7q-5.31-2.7-5.31-7.74t7.2-11.61q-2.7-1-2.7-3t5.31-9.81q-7.74-3.33-7.74-14a14.66,14.66,0,0,1,4.19-10.39Q914.59,232,922.7,232a22.75,22.75,0,0,1,8.19,1.35l12.6-1.44v6h-6.75a17.92,17.92,0,0,1,2.34,9.58,14.61,14.61,0,0,1-4.14,10.26Q930.8,262.24,922.7,262.23ZM911.36,284q0,2.88,3.15,4.41A18.82,18.82,0,0,0,922.7,290a21.92,21.92,0,0,0,9.36-2q4.32-2,4.32-5.54a3.32,3.32,0,0,0-2.07-2.92,28.71,28.71,0,0,0-7.2-2.21l-10.53-2.34Q911.36,280.14,911.36,284Zm20.52-35.82q0-11.16-9.09-11.16a8.79,8.79,0,0,0-5.85,1.89,9.69,9.69,0,0,0-3.51,7.6,12.85,12.85,0,0,0,2.16,7.61q2.16,3.06,6.93,3.06c3.18,0,5.53-1,7.06-2.93A9.7,9.7,0,0,0,931.88,248.19Z"/></svg>