<?xml version="1.0" standalone="no"?>
<!DOCTYPE svg PUBLIC "-//W3C//DTD SVG 20010904//EN"
 "http://www.w3.org/TR/2001/REC-SVG-20010904/DTD/svg10.dtd">
<svg version="1.0" xmlns="http://www.w3.org/2000/svg"
 width="622.000000pt" height="622.000000pt" viewBox="0 0 622.000000 622.000000"
 preserveAspectRatio="xMidYMid meet">
<metadata>
Created by potrace 1.11, written by Peter Selinger 2001-2013
</metadata>
<g transform="translate(0.000000,622.000000) scale(0.100000,-0.100000)"
fill="#000000" stroke="none">
<path d="M3067 6194 c-20 -13 -54 -34 -75 -45 -20 -11 -55 -31 -77 -45 -22
-14 -52 -30 -67 -37 -16 -6 -28 -15 -28 -19 0 -4 -4 -8 -9 -8 -8 0 -150 -80
-299 -169 -29 -17 -55 -31 -57 -31 -3 0 -37 -20 -77 -44 -132 -80 -441 -256
-449 -256 -5 0 -9 -4 -9 -10 0 -5 -5 -10 -11 -10 -6 0 -63 -31 -127 -69 -64
-38 -133 -78 -152 -88 -19 -11 -62 -35 -95 -53 -33 -19 -62 -36 -65 -39 -5 -6
-81 -48 -117 -65 -13 -6 -23 -14 -23 -18 0 -5 -4 -8 -9 -8 -5 0 -91 -48 -192
-106 -101 -59 -209 -120 -239 -137 -30 -16 -66 -38 -80 -47 -14 -9 -32 -20
-40 -23 -8 -4 -36 -19 -61 -34 -26 -16 -101 -59 -168 -97 l-121 -69 0 -1556 0
-1556 312 -180 c172 -99 321 -184 330 -190 10 -5 91 -52 181 -104 89 -52 176
-102 192 -111 210 -121 374 -216 399 -231 17 -10 40 -23 51 -29 11 -5 43 -23
70 -40 28 -17 58 -33 68 -37 9 -3 17 -9 17 -14 0 -5 4 -9 9 -9 6 0 38 -17 73
-37 109 -65 142 -83 176 -98 17 -9 32 -20 32 -25 0 -6 7 -10 15 -10 14 0 63
-26 75 -40 3 -3 21 -14 40 -24 19 -9 44 -23 55 -29 11 -7 66 -39 123 -71 56
-32 105 -62 108 -67 3 -5 10 -7 15 -4 5 4 9 1 9 -4 0 -6 4 -11 10 -11 5 0 39
-18 75 -40 36 -22 69 -40 74 -40 5 0 11 -3 13 -7 2 -5 19 -16 38 -26 19 -9 59
-31 88 -48 l52 -30 29 20 c16 12 34 21 40 21 6 0 11 5 11 10 0 6 5 10 10 10
14 0 174 92 178 102 2 4 7 8 12 8 5 0 84 44 177 97 92 53 185 106 205 117 20
12 89 51 153 89 63 37 120 67 125 67 6 0 10 4 10 8 0 4 19 18 43 30 23 12 60
33 82 47 22 14 47 28 55 32 8 3 114 64 235 134 121 70 315 181 430 248 116 66
215 125 222 131 7 5 16 10 20 10 5 0 25 11 46 25 20 14 37 22 37 18 0 -4 4 -3
8 3 4 6 100 64 215 130 114 65 229 132 255 147 26 15 57 33 70 39 l22 11 0
1556 0 1556 -54 33 c-30 17 -59 32 -65 32 -6 0 -11 5 -11 10 0 6 -5 10 -11 10
-7 0 -40 18 -75 40 -35 22 -66 40 -68 40 -2 0 -50 27 -106 60 -56 33 -106 60
-111 60 -5 0 -9 4 -9 8 0 5 -16 14 -35 22 -19 8 -35 17 -35 22 0 4 -4 8 -10 8
-5 0 -33 14 -62 31 -29 18 -78 45 -108 62 -30 17 -66 38 -79 49 -13 10 -27 18
-31 18 -7 0 -182 100 -206 117 -5 4 -26 16 -45 27 -19 10 -54 30 -79 43 -25
14 -70 40 -100 58 -30 19 -75 44 -100 57 -25 13 -47 26 -50 29 -3 3 -25 16
-50 30 -25 13 -47 26 -50 29 -6 6 -86 50 -117 65 -13 5 -23 13 -23 18 0 4 -6
7 -14 7 -7 0 -19 7 -26 15 -7 9 -15 13 -18 11 -3 -3 -17 3 -31 13 -14 10 -43
28 -63 40 -60 34 -92 52 -296 170 -106 61 -198 111 -203 111 -5 0 -9 4 -9 9 0
5 -8 11 -17 15 -10 3 -25 10 -33 16 -35 24 -242 140 -250 140 -4 0 -10 4 -12
9 -8 21 -45 18 -81 -5z"/>
</g>
</svg>
